<?xml version="1.0" encoding="utf-8"?>
<!-- Generator: Adobe Illustrator 23.0.2, SVG Export Plug-In . SVG Version: 6.00 Build 0)  -->
<svg version="1.1" id="Layer_1" xmlns="http://www.w3.org/2000/svg" xmlns:xlink="http://www.w3.org/1999/xlink" x="0px" y="0px"
	 viewBox="0 0 302.6026 280.3441" enable-background="new 0 0 302.6026 280.3441" xml:space="preserve">
<g>
	<path d="M201.9073,72.7485V51.7641h-38v20.9844c4.498-2.7656,11.7675-4.0566,19-4.0566
		C190.1397,68.6919,197.4092,69.9829,201.9073,72.7485z"/>
	<path d="M157.0039,130.5864l-6.1142,31.4687h9.6592l6.5185-30.1054l-5.9932-21.3047c-3.5605,1.7011-8.2666,4.8115-13.083,10.4502
		c-6.8066,7.9306-13.8017,20.5937-18.8349,40.9599h13.4277C146.8799,146.0981,152.3028,136.396,157.0039,130.5864z"/>
	<path d="M172.5752,131.2211h20.6621l6.3028-22.4062c-0.1573-0.0322-0.3037-0.0596-0.4248-0.0791
		c-1.8418-0.4561-8.7237-2.0791-16.2071-2.1016c-7.4853,0.0225-14.3681,1.6455-16.2129,2.1016
		c-0.1211,0.0195-0.2675,0.0469-0.4238,0.0791L172.5752,131.2211z"/>
	<path d="M198.7451,131.9497l6.5176,30.1054h9.6602l-6.1094-31.4424c0.1582,0.1944,0.3135,0.3741,0.4736,0.5772
		c4.583,5.8594,9.7901,15.4434,13.9424,30.8652h13.4258c-5.0342-20.3662-12.0293-33.0293-18.835-40.9599
		c-4.8154-5.6377-9.5224-8.7481-13.082-10.4492L198.7451,131.9497z"/>
	<rect x="104.7256" y="165.0551" width="195.7578" height="10.668"/>
	<path d="M69.2139,76.6606c0-12.4258-10.0723-22.498-22.5-22.498c-12.4258,0-22.5,10.0722-22.5,22.498
		c0,5.6152,2.0615,10.7461,5.4629,14.6875H63.752C67.1524,87.4067,69.2139,82.2758,69.2139,76.6606z"/>
	<path d="M85.4356,137.1899l24.0009-4.502c3.3086-0.621,5.752-3.1982,6.3682-6.3115l19.6475-10.3818
		c0.9765-0.5156,1.3496-1.7256,0.834-2.7031l-7.1641-13.5567c-0.5156-0.9765-1.7266-1.3496-2.7031-0.833l-27.7032,14.6377
		c-0.9765,0.5166-1.3496,1.7266-0.8339,2.7031l1.122,2.1241l-10.3134,1.9326c-1.211-2.5313-2.7881-5.6143-4.6465-8.7657
		c-1.3575-2.2832-2.8496-4.6035-4.5283-6.8193c-1.0831-1.4297-2.2432-2.8164-3.5-4.1182c-1.6153-1.6572-3.3975-3.1992-5.5723-4.4628
		c-1.169-0.6748-2.4942-1.2715-3.9502-1.6827c-0.9121-0.3789-1.9131-0.5908-2.9629-0.5908H24.8955
		c-0.5459,0-1.0781,0.0586-1.5918,0.166c-0.3564,0.0743-0.7002,0.1807-1.0371,0.3028c-5.3818,1.1015-10.5244,4.2861-14.4189,9.2373
		C2.919,109.812-0.0078,118.6811,0,129.8266c0,2.9209,0.1963,6.0156,0.6182,9.291c0.4932,4.1973,2.6123,7.92,5.1894,10.3262
		c3.1289,2.9277,6.5206,4.3398,9.4961,5.1797v-35.9004h1.8633v149.2578c0,6.8301,5.5371,12.3633,12.3633,12.3633
		c6.8281,0,12.3652-5.5332,12.3652-12.3633v-90.2715h4.6348v90.2715c0,6.8301,5.5371,12.3633,12.3633,12.3633
		c6.8281,0,12.3652-5.5332,12.3652-12.3633V121.3745c0.3086,0.5547,0.6074,1.1074,0.8887,1.6513
		c1.3428,2.5186,2.459,4.8838,3.2295,6.5928c0.2373,0.5264,0.4365,0.9824,0.6054,1.3721c0.1045,0.2412,0.1993,0.4629,0.2754,0.6416
		c0.0977,0.2344,0.1719,0.4131,0.2188,0.5263c0.0469,0.1143,0.0576,0.1426,0.0596,0.1426c1.2324,3.0752,4.207,5.0254,7.4248,5.0254
		C84.4483,137.3266,84.9414,137.2817,85.4356,137.1899z M103.3428,113.7329l20.3359-10.7442l6.8516,12.9678l-14.6592,7.7451
		c-0.0166-0.1162-0.0254-0.2314-0.0469-0.3486c-0.8144-4.3438-4.9951-7.2031-9.3369-6.3887l-1.3076,0.2451L103.3428,113.7329z"/>
	<rect x="182.8916" y="136.0551" width="12.666" height="3.334"/>
	<path d="M125.0889,68.1743c5.6035,0.3886,11.3809-0.5938,16.8301-3.1504c17.0605-8.0049,24.4023-28.3262,16.3984-45.3887
		c-8.0059-17.0605-28.3281-24.4004-45.3887-16.3955c-17.0586,8.0049-24.4023,28.3252-16.3964,45.3857
		c3.8144,8.1329,10.4296,14.0489,18.1542,17.1563L112.751,94.769L125.0889,68.1743z M102.1924,47.9848
		c-6.5273-13.9101-0.543-30.4804,13.3672-37.0078c13.9121-6.5273,30.4824-0.541,37.0098,13.3711
		c6.5273,13.9121,0.541,30.4805-13.3711,37.0078C125.2862,67.8833,108.7198,61.8969,102.1924,47.9848z"/>
	<path d="M241.1026,92.186h2v59.5h4.5195v5.5h4.793v-5.5h38.875v5.5h4.791v-5.5h4.5215v-59.5h2v-21.25h-61.5V92.186z
		 M262.1865,103.52v2.9072c-2.5107,0.2422-4.8857,0.6641-6.2402,0.6533c-0.1797,0.002-0.3389-0.0068-0.4658-0.0205
		c0.21-0.3437,0.6602-0.9424,1.3984-1.6758c1.9932-2.0244,2.752-4.2412,2.7432-6.2363c-0.0205-2.124-0.79-3.9541-1.5889-5.2959
		h11.8194v9.668H262.1865z M257.6221,99.1479c-0.0098,1.5107-0.5098,3.124-2.1729,4.8359
		c-1.3046,1.4004-2.0253,2.1768-2.1123,3.3643c-0.041,0.6885,0.5498,1.3447,1.0498,1.4961
		c0.5049,0.2012,0.9981,0.2314,1.5596,0.2373c1.6113-0.0088,3.9131-0.4072,6.2402-0.6445v4.874h19.3321v-9.791h-7.666v-9.668h21.166
		v28.6377c-0.8623-1.0674-2.166-1.7627-3.6446-1.7627c-0.7666,0-1.4794,0.2002-2.1191,0.5244
		c-0.5635-1.2392-1.8047-2.1064-3.2568-2.1074c-1.8203,0-3.3076,1.3623-3.5371,3.1182c-0.6563-0.8272-1.6582-1.3672-2.7969-1.3682
		c-0.6211,0.001-1.1963,0.1729-1.7051,0.4512c-0.8525-1.2032-2.249-1.9932-3.8359-1.9932c-1.5821,0-2.9746,0.7861-3.8291,1.9834
		c-0.6485-0.6572-1.5489-1.0654-2.545-1.0654c-0.9355,0-1.7802,0.3662-2.4179,0.9521c-0.6377-0.5859-1.4815-0.9521-2.416-0.9531
		c-1.4649,0.002-2.7188,0.8799-3.2754,2.1377c-0.4121-1.8438-2.0498-3.2217-4.0147-3.2217c-2.2802,0-4.1269,1.8467-4.1269,4.126
		c0,0.0234,0.0068,0.0449,0.0068,0.0684c-0.2705-0.0655-0.5488-0.1094-0.8398-0.1094c-0.7325,0-1.4131,0.2217-1.9805,0.5986V93.852
		h6.9482C256.4737,94.9858,257.6377,96.9965,257.6221,99.1479z M285.7803,132.852c-0.417-0.3682-0.6934-0.8818-0.7578-1.4629
		c1.2363-0.3232,2.2041-1.2812,2.541-2.5107c1.1328,0.1396,2.0156,1.0947,2.0195,2.2666c-0.0019,0.6816-0.3076,1.2871-0.7822,1.707
		H285.7803z M282.083,131.146c-0.0019,0.6816-0.3076,1.2871-0.7822,1.706h-3.0215c-0.4258-0.376-0.7051-0.9033-0.7607-1.5
		c1.1826-0.3535,2.1006-1.291,2.4238-2.4863c0.2822,0.0195,0.5508,0.0849,0.7959,0.1972c0.2422,0.7276,0.7012,1.3526,1.3145,1.7881
		C282.0655,130.9487,282.083,131.0454,282.083,131.146z M274.9971,131.852h0.0019c-0.0009,0.3809-0.1425,0.7266-0.3691,1h-2.4326
		c-0.2256-0.2734-0.3672-0.6191-0.3682-1c0.002-0.8721,0.7129-1.5801,1.585-1.583c0.1553,0.001,0.3037,0.0303,0.4453,0.0732
		c0.2627,0.2872,0.5713,0.5254,0.915,0.7149C274.9121,131.2915,274.9971,131.561,274.9971,131.852z M266.2012,132.852
		c-0.0225-0.1074-0.0361-0.2178-0.0361-0.332c0-0.876,0.708-1.5821,1.582-1.585c0.0762,0,0.1484,0.0127,0.2217,0.0235
		c0.332,0.3535,0.7295,0.6435,1.1806,0.8408c0.1123,0.2168,0.1817,0.459,0.1827,0.7207c0,0.1142-0.0137,0.2246-0.0372,0.332
		H266.2012z M262.9971,132.852h-3.167c0.002-0.8721,0.71-1.581,1.585-1.583c0.2695,0.001,0.5185,0.0752,0.7412,0.1943
		c0.1777,0.2002,0.372,0.3848,0.5898,0.5411C262.9033,132.2504,262.9971,132.5395,262.9971,132.852z M253.5889,132.852
		c-0.7422-0.373-1.2568-1.1318-1.2607-2.0195c0.0048-1.2539,1.0195-2.2705,2.2734-2.2735c1.2529,0.003,2.2695,1.0196,2.2715,2.2735
		c-0.001,0.8877-0.5157,1.6465-1.2588,2.0195H253.5889z M249.0791,126.851c0.002-0.8711,0.7119-1.581,1.586-1.583
		c0.8711,0.002,1.581,0.7119,1.583,1.583c0,0.168-0.0342,0.3262-0.0821,0.4776c-0.4013,0.2802-0.749,0.6289-1.0341,1.0273
		c-0.1485,0.0469-0.3028,0.0791-0.4668,0.0791C249.791,128.4331,249.0811,127.7251,249.0791,126.851z M266.1631,123.852
		c0.002-0.873,0.71-1.581,1.5859-1.584c0.8721,0.003,1.5801,0.711,1.5801,1.584h0.002c-0.002,0.874-0.71,1.582-1.5821,1.584
		C266.8731,125.434,266.1651,124.726,266.1631,123.852z M271.4141,124.061c0.0019-1.4981,1.2129-2.707,2.709-2.7109
		c1.041,0.0029,1.9345,0.5976,2.3877,1.4609c-0.253,0.4756-0.4073,1.0078-0.4209,1.581c-1.3213,0.1524-2.4258,1.0079-2.9092,2.1973
		C272.1514,126.2045,271.416,125.2211,271.4141,124.061z M278.0801,124.478c0.002-0.8731,0.7109-1.582,1.584-1.585
		c0.873,0.003,1.582,0.7119,1.584,1.585c-0.002,0.8721-0.711,1.581-1.584,1.584c-0.0449,0-0.0879-0.0098-0.1318-0.0137
		c-0.3458-0.5557-0.8379-1.002-1.4239-1.2988C278.0928,124.6606,278.0801,124.5708,278.0801,124.478z M289.4932,123.4917
		c0.4873-0.4717,1.1484-0.7657,1.8808-0.7676c1.4932,0.0049,2.7042,1.2138,2.7061,2.7109c-0.001,1.0479-0.6045,1.9473-1.4756,2.3975
		c-0.3076,0.0537-0.5986,0.1474-0.874,0.2744c-0.1182,0.0156-0.2344,0.0361-0.3565,0.0361c-1.497-0.0019-2.708-1.2138-2.7099-2.708
		c0-0.1318,0.0205-0.2578,0.0391-0.3848C289.083,124.6088,289.3643,124.0815,289.4932,123.4917z M248.749,129.935
		c0.0499,0,0.0967,0.0098,0.1446,0.0147c0.2666,0.1523,0.5517,0.2724,0.8564,0.3525c0.3506,0.291,0.5801,0.7246,0.5821,1.2178
		c-0.002,0.5615-0.2979,1.0508-0.7393,1.332h-0.9082v-2.9101C248.7061,129.9409,248.7266,129.935,248.749,129.935z
		 M285.7051,127.935c-0.0019,0.8731-0.709,1.582-1.583,1.585c-0.875-0.003-1.582-0.7119-1.584-1.585
		c0.002-0.876,0.709-1.583,1.584-1.5849C284.9961,126.352,285.7032,127.059,285.7051,127.935z M276.4981,129.519
		c-0.877-0.002-1.583-0.7109-1.585-1.584c0.002-0.874,0.708-1.583,1.585-1.5849c0.873,0.0019,1.5801,0.7109,1.582,1.5849
		C278.0782,128.8081,277.3711,129.517,276.4981,129.519z M270.3194,130.0737c-0.7481-0.127-1.3204-0.7705-1.3223-1.5537
		c0.0019-0.8242,0.6309-1.4912,1.4326-1.5703c0.4561,0.581,1.0371,1.0537,1.7139,1.3691c0.0078,0.0625,0.0185,0.1231,0.0195,0.1875
		C271.3789,128.7993,270.7334,129.3569,270.3194,130.0737z M264.6924,130.6704c-0.8076-0.0723-1.4424-0.7412-1.4443-1.5694
		c0.0019-0.8711,0.7099-1.581,1.583-1.581c0.874,0,1.582,0.7099,1.582,1.581h0.002c0,0.0342-0.0078,0.0664-0.0098,0.0996
		C265.6846,129.4926,265.0899,130.0131,264.6924,130.6704z M261.25,128.894c0,0.1357-0.0215,0.2666-0.041,0.3965
		c-0.9355,0.0547-1.7734,0.456-2.3808,1.0908c-0.1426-1.333-0.8819-2.4785-1.961-3.1582c0.6504-0.208,1.2363-0.5576,1.7031-1.0352
		C260.0498,126.2075,261.2451,127.4096,261.25,128.894z M287.5791,122.726h0.002c-0.002,0.875-0.71,1.583-1.583,1.585
		c-0.876-0.002-1.583-0.71-1.583-1.585c0-0.872,0.707-1.581,1.583-1.584C286.8711,121.145,287.5791,121.854,287.5791,122.726z
		 M264.2647,124.6655c-0.2774,0.458-0.7754,0.7676-1.3496,0.7695c-0.875-0.0029-1.583-0.7099-1.585-1.583
		c0.002-0.8721,0.7119-1.581,1.585-1.583c0.5732,0.001,1.0722,0.3115,1.3496,0.7705c-0.0606,0.2617-0.1006,0.5322-0.1006,0.8125
		C264.1641,124.1333,264.2041,124.4028,264.2647,124.6655z M255.625,125.436c-1.1758-0.0039-2.125-0.9541-2.1269-2.125
		c0.0019-1.1748,0.9511-2.124,2.1269-2.126c1.1699,0.002,2.1201,0.9512,2.124,2.126
		C257.7451,124.4819,256.7949,125.4321,255.625,125.436z M291.6426,131.352c0.002-0.8721,0.7119-1.582,1.585-1.582
		c0.872,0,1.582,0.7099,1.582,1.582h0.0019c-0.0019,0.7041-0.4658,1.294-1.1015,1.5h-0.9658
		C292.1074,132.646,291.6446,132.0561,291.6426,131.352z M258.4151,75.686c1.3808,0,2.5,1.1201,2.5,2.5c0,1.3809-1.1192,2.5-2.5,2.5
		c-1.3809,0-2.5-1.1191-2.5-2.5C255.9151,76.8061,257.0342,75.686,258.4151,75.686z M250.9151,75.686c1.3808,0,2.5,1.1201,2.5,2.5
		c0,1.3809-1.1192,2.5-2.5,2.5c-1.3809,0-2.5-1.1191-2.5-2.5C248.4151,76.8061,249.5342,75.686,250.9151,75.686z"/>
	<path d="M182.9073,101.0981c11.873,0,21.5-9.625,21.5-21.5c0-11.873-43-11.873-43,0
		C161.4073,91.4731,171.0323,101.0981,182.9073,101.0981z"/>
	<path d="M132.2295,31.7993l-0.0234,0.0234c1.9472-2.8476,3.4512-5.2617,4.5137-7.2412c1.0136-0.5791,1.5214-1.2881,1.5214-2.125
		c0-0.3701-0.2422-0.8682-0.7246-1.4971c-6.373-0.4658-10.373-0.8115-11.998-1.0371c-0.9004-0.8535-1.7949-1.2793-2.6797-1.2793
		c-2.0117,0-3.875,0.6153-5.5879,1.8467c-1.7148,1.2314-2.9414,2.8682-3.6816,4.9131c-0.7403,2.043-1.1114,3.4033-1.1114,4.0781
		c0,1.7383,0.4102,3.1113,1.2325,4.1172c0.8203,1.0059,1.9707,1.5078,3.4511,1.5078c1.2559,0,2.6602-0.418,4.2129-1.2539
		c1.5528-0.8379,2.8008-2.0527,3.7422-3.6455c0.9414-1.5947,1.4121-3.0908,1.4121-4.4912c0-0.5137-0.0644-1.0527-0.1933-1.6172
		c1.3203,0,2.0605-0.0078,2.2207-0.0234c0.1601-0.0157,1.0293,0.1523,2.6074,0.5068c-4.0078,6.4053-6.1563,9.8018-6.4453,10.1875
		c-1.9805,2.751-3.6055,5.6807-4.877,8.7871c-1.2715,3.1065-1.9062,5.0459-1.9062,5.8174c0,1.5293,0.707,2.293,2.123,2.293
		c0.6934,0,1.4727-0.5704,2.3418-1.7129c0.6445-1.3047,1.377-2.8809,2.1973-4.7325c1.5449-3.4921,3.4277-6.9189,5.6484-10.2832
		C131.4658,33.0551,132.1338,32.0083,132.2295,31.7993z M120.9444,29.519c-0.6368,0.9736-1.252,1.46-1.8477,1.46
		c-0.498,0-1.0371-0.1455-1.6172-0.4356c-0.3691-0.3369-0.5547-0.7402-0.5547-1.207c0-1.0625,0.3985-2.2803,1.1953-3.6563
		c0.7969-1.3769,1.7266-2.0644,2.7872-2.0644h0.4355c0.3691,1.4492,0.5547,2.4629,0.5547,3.041
		C121.8975,27.5903,121.5791,28.5454,120.9444,29.519z"/>
	<path d="M130.9502,40.3461c-1.416,2.0118-2.123,3.9102-2.123,5.6954c0,0.9824,0.3242,2.081,0.9765,3.2968
		c0.6524,1.2149,2.0157,1.8223,4.0918,1.8223c0.9981,0,1.9239-0.1006,2.7774-0.3027c0.8515-0.2012,1.7285-0.5938,2.6308-1.1817
		c0.9004-0.5869,1.7129-1.1758,2.4375-1.7636c0.7246-0.586,1.2188-1.3145,1.4844-2.1836c0.2656-0.8692,0.3984-1.6817,0.3984-2.4395
		c0-1.7695-0.8281-3.206-2.4863-4.3086c-1.6582-1.1015-3.5879-1.6543-5.7929-1.6543
		C133.8311,37.3266,132.3662,38.3335,130.9502,40.3461z M136.9385,41.9145c1.2871,0.5469,1.9297,1.0791,1.9297,1.5938
		c0,0.6914-0.1602,1.2949-0.4824,1.8105c-1.4649,1.0459-2.3418,1.5684-2.6309,1.5684l-1.3516-0.0967l-0.3632,0.0244
		c-0.1934-1.3506-0.0469-2.5859,0.4355-3.7051c0.4824-1.1191,1.0215-1.6777,1.6172-1.6777
		C136.335,41.6245,136.6162,41.7856,136.9385,41.9145z"/>
</g>
</svg>
